REM DIRINDEX 1\5,1\2\6,1\2\7,1\3\8,1\3\9,1\4\10,1\4\11,1\4\12
REM DIRNAME cjc026,folder01,folder02,folder03,folder04,folder05,folder06,folder07,folder08,folder09,folder10,folder11
TITLE ""
FILE "EJE_DB3000_5th_6C_45.mp3" MP3
  TRACK 01 AUDIO
    TITLE "0:"
    INDEX 01 00:00:00
  TRACK 02 AUDIO
    TITLE "10:cjc026_11898"
    INDEX 01 00:00:08
  TRACK 03 AUDIO
    TITLE "0:"
    INDEX 01 00:01:16
  TRACK 04 AUDIO
    TITLE "11:cjc026_11899"
    INDEX 01 00:01:51
  TRACK 05 AUDIO
    TITLE "0:"
    INDEX 01 00:03:09
  TRACK 06 AUDIO
    TITLE "12:cjc026_11900"
    INDEX 01 00:03:50
  TRACK 07 AUDIO
    TITLE "0:"
    INDEX 01 00:04:59
  TRACK 08 AUDIO
    TITLE "10:cjc026_11901"
    INDEX 01 00:05:19
  TRACK 09 AUDIO
    TITLE "0:"
    INDEX 01 00:06:30
  TRACK 10 AUDIO
    TITLE "11:cjc026_11902"
    INDEX 01 00:06:65
  TRACK 11 AUDIO
    TITLE "0:"
    INDEX 01 00:08:31
  TRACK 12 AUDIO
    TITLE "12:cjc026_11903"
    INDEX 01 00:08:66
  TRACK 13 AUDIO
    TITLE "0:"
    INDEX 01 00:10:06
  TRACK 14 AUDIO
    TITLE "10:cjc026_11904"
    INDEX 01 00:10:38
  TRACK 15 AUDIO
    TITLE "0:"
    INDEX 01 00:11:49
  TRACK 16 AUDIO
    TITLE "11:cjc026_11905"
    INDEX 01 00:12:12
  TRACK 17 AUDIO
    TITLE "0:"
    INDEX 01 00:13:34
  TRACK 18 AUDIO
    TITLE "12:cjc026_11906"
    INDEX 01 00:13:69
  TRACK 19 AUDIO
    TITLE "0:"
    INDEX 01 00:15:06
  TRACK 20 AUDIO
    TITLE "10:cjc026_11907"
    INDEX 01 00:15:41
  TRACK 21 AUDIO
    TITLE "0:"
    INDEX 01 00:16:50
  TRACK 22 AUDIO
    TITLE "11:cjc026_11908"
    INDEX 01 00:17:12
  TRACK 23 AUDIO
    TITLE "0:"
    INDEX 01 00:18:43
  TRACK 24 AUDIO
    TITLE "12:cjc026_11909"
    INDEX 01 00:19:00
  TRACK 25 AUDIO
    TITLE "0:"
    INDEX 01 00:20:14
  TRACK 26 AUDIO
    TITLE "10:cjc026_11910"
    INDEX 01 00:20:47
  TRACK 27 AUDIO
    TITLE "0:"
    INDEX 01 00:21:63
  TRACK 28 AUDIO
    TITLE "11:cjc026_11911"
    INDEX 01 00:22:26
  TRACK 29 AUDIO
    TITLE "0:"
    INDEX 01 00:24:00
  TRACK 30 AUDIO
    TITLE "12:cjc026_11912"
    INDEX 01 00:24:36
  TRACK 31 AUDIO
    TITLE "0:"
    INDEX 01 00:25:55
  TRACK 32 AUDIO
    TITLE "10:cjc026_11913"
    INDEX 01 00:26:15
  TRACK 33 AUDIO
    TITLE "0:"
    INDEX 01 00:27:18
  TRACK 34 AUDIO
    TITLE "11:cjc026_11914"
    INDEX 01 00:27:54
  TRACK 35 AUDIO
    TITLE "0:"
    INDEX 01 00:29:20
  TRACK 36 AUDIO
    TITLE "12:cjc026_11915"
    INDEX 01 00:29:55
  TRACK 37 AUDIO
    TITLE "0:"
    INDEX 01 00:30:58
  TRACK 38 AUDIO
    TITLE "10:cjc026_11916"
    INDEX 01 00:31:21
  TRACK 39 AUDIO
    TITLE "0:"
    INDEX 01 00:32:40
  TRACK 40 AUDIO
    TITLE "11:cjc026_11917"
    INDEX 01 00:33:00
  TRACK 41 AUDIO
    TITLE "0:"
    INDEX 01 00:34:50
  TRACK 42 AUDIO
    TITLE "12:cjc026_11918"
    INDEX 01 00:35:07
  TRACK 43 AUDIO
    TITLE "0:"
    INDEX 01 00:36:32
  TRACK 44 AUDIO
    TITLE "10:cjc026_11919"
    INDEX 01 00:36:67
  TRACK 45 AUDIO
    TITLE "0:"
    INDEX 01 00:38:03
  TRACK 46 AUDIO
    TITLE "11:cjc026_11920"
    INDEX 01 00:38:41
  TRACK 47 AUDIO
    TITLE "0:"
    INDEX 01 00:40:24
  TRACK 48 AUDIO
    TITLE "12:cjc026_11921"
    INDEX 01 00:40:59
  TRACK 49 AUDIO
    TITLE "0:"
    INDEX 01 00:41:70
  TRACK 50 AUDIO
    TITLE "10:cjc026_11922"
    INDEX 01 00:42:33
  TRACK 51 AUDIO
    TITLE "0:"
    INDEX 01 00:43:50
  TRACK 52 AUDIO
    TITLE "11:cjc026_11923"
    INDEX 01 00:44:12
  TRACK 53 AUDIO
    TITLE "0:"
    INDEX 01 00:45:51
  TRACK 54 AUDIO
    TITLE "12:cjc026_11924"
    INDEX 01 00:46:14
  TRACK 55 AUDIO
    TITLE "0:"
    INDEX 01 00:47:30
  TRACK 56 AUDIO
    TITLE "10:cjc026_11925"
    INDEX 01 00:47:68
  TRACK 57 AUDIO
    TITLE "0:"
    INDEX 01 00:49:13
  TRACK 58 AUDIO
    TITLE "11:cjc026_11926"
    INDEX 01 00:49:48
  TRACK 59 AUDIO
    TITLE "0:"
    INDEX 01 00:51:06
  TRACK 60 AUDIO
    TITLE "12:cjc026_11927"
    INDEX 01 00:51:41
  TRACK 61 AUDIO
    TITLE "0:"
    INDEX 01 00:52:60
  TRACK 62 AUDIO
    TITLE "10:cjc026_11928"
    INDEX 01 00:53:21
  TRACK 63 AUDIO
    TITLE "0:"
    INDEX 01 00:54:35
  TRACK 64 AUDIO
    TITLE "11:cjc026_11929"
    INDEX 01 00:54:67
  TRACK 65 AUDIO
    TITLE "0:"
    INDEX 01 00:56:17
  TRACK 66 AUDIO
    TITLE "12:cjc026_11930"
    INDEX 01 00:56:57
  TRACK 67 AUDIO
    TITLE "0:"
    INDEX 01 00:57:72
